<?xml version="1.0" encoding="UTF-8" standalone="no"?>
<svg width="837px" height="398px" viewBox="0 0 837 398" version="1.1" xmlns="http://www.w3.org/2000/svg" xmlns:xlink="http://www.w3.org/1999/xlink" xmlns:sketch="http://www.bohemiancoding.com/sketch/ns">
    <!-- Generator: Sketch 3.0.3 (7891) - http://www.bohemiancoding.com/sketch -->
    <title>Logo (Regular + Book)</title>
    <desc>Created with Sketch.</desc>
    <defs></defs>
    <g id="Page-1" stroke="none" stroke-width="1" fill="none" fill-rule="evenodd" sketch:type="MSPage">
        <g id="All" sketch:type="MSArtboardGroup" transform="translate(-2.000000, -19.000000)" fill="#FFFFFF">
            <g id="Logo-(Regular-+-Book)" sketch:type="MSLayerGroup" transform="translate(2.000000, 19.000000)">
                <path d="M782.338195,83.4899742 C790.128216,82.1456509 799.267776,80.7352133 806.037414,85.9362018 C809.383832,88.4485437 813.26787,90.5642001 815.648764,94.1343702 C815.955976,95.2583126 816.296104,96.371236 816.658175,97.4841594 C816.756922,98.0902068 816.976359,99.3023016 817.075106,99.8973299 C819.598634,101.957891 822.133134,104.117624 825.304002,105.098318 C829.297759,106.519775 833.9608,106.916461 836.989033,110.222174 C837.08778,112.701458 836.517243,115.059534 835.37617,117.241304 C835.266451,122.144779 836.945146,127.929777 833.159854,131.940708 C831.086172,135.114193 827.202133,132.623889 824.327506,133.505413 C822.791445,134.464069 821.332188,135.510879 819.894874,136.601764 C815.473214,137.373097 810.876005,136.07285 806.564064,137.395135 C805.071891,137.582459 803.590689,137.747744 802.098516,137.91303 C800.386906,140.249067 798.774043,142.651219 797.029517,144.954199 C798.038928,153.4609 796.711333,161.923526 795.855528,170.364113 C794.86806,173.614731 794.165861,176.942482 793.057703,180.160043 C792.311617,182.286718 790.687781,184.358298 791.126656,186.716374 C793.079647,196.20377 791.082768,205.889509 792.179954,215.44302 C793.62824,223.39877 793.62824,231.861395 791.005965,239.596763 C789.85392,243.398333 788.833537,247.288056 786.562362,250.604788 C785.037273,253.524834 783.72065,256.555071 781.95418,259.342889 L781.899321,259.827727 C779.814667,261.745041 779.41968,264.576935 779.606202,267.276601 C778.278607,282.053138 777.938479,297.094132 773.802088,311.462965 C773.407101,312.917479 773.077945,314.383012 772.737817,315.848544 C772.145337,317.931144 771.860068,320.090876 771.530913,322.228571 C770.477614,325.875874 771.355363,329.787635 770.137486,333.390862 C769.753471,338.547774 769.874162,343.737744 770.093599,348.916694 C771.10301,354.789844 772.957255,360.48669 773.747228,366.403916 C773.714313,371.748152 778.026254,375.197113 782.382083,377.323788 C783.567044,377.687417 784.752005,378.040026 785.947938,378.392635 C787.110955,381.433891 789.393102,384.177633 789.436989,387.538442 C788.668959,387.736784 787.110955,388.13347 786.342924,388.331813 L786.266121,388.882765 C782.12973,389.290469 777.839733,388.47506 773.845975,389.852441 C771.092038,391.119631 767.120225,392.27663 765.189177,389.070089 C762.040253,383.913176 762.149972,377.709455 761.744013,371.880381 C761.283195,370.051219 760.975983,368.189001 760.72363,366.337802 C760.273784,364.51966 759.823937,362.701517 759.231457,360.938471 C758.06844,358.789757 756.65307,356.762253 755.70949,354.503349 C755.259643,352.112217 756.444604,349.842294 757.146803,347.627466 C757.508875,346.183971 757.794143,344.729458 758.123299,343.285963 C759.319232,339.363183 758.83647,335.186966 759.077851,331.131958 C759.275344,311.683346 759.121738,292.223715 758.452455,272.786122 C757.947749,270.990018 757.980665,269.116781 758.046496,267.265582 C758.48537,265.833106 758.781611,264.367573 759.088823,262.91306 C760.054346,260.676194 760.975983,258.351175 761.01987,255.871891 C756.631126,255.232786 752.692228,257.998566 749.707882,260.907594 C748.643611,262.505355 747.711003,264.18025 746.910057,265.921258 C744.112233,275.375598 742.181185,285.13847 742.005636,295.033571 L741.610649,295.727771 C741.138859,312.686079 741.116915,329.644387 741.457043,346.613714 C741.643564,351.748588 740.3818,356.927539 741.522874,362.029356 C743.102822,368.872182 743.442949,376.739779 748.75333,381.951786 C750.508828,384.420052 753.613864,384.871833 756.269055,385.863547 C756.77376,387.549461 757.344297,389.235374 757.859974,390.921288 C758.638976,391.924021 759.439922,392.926754 760.25184,393.929487 C758.990076,396.342657 756.740845,398.248952 753.877189,397.973476 C752.450847,397.191124 751.013533,396.43081 749.57622,395.670496 C746.98686,396.067181 744.397501,396.552019 741.764255,396.66221 C738.07771,394.866105 733.041626,393.290382 732.822188,388.342832 C732.920935,380.717654 731.351959,373.103495 727.851936,366.293726 C727.533752,365.753793 726.919327,364.651888 726.612115,364.100936 C725.262576,363.142279 723.781375,362.293813 722.837795,360.905413 C722.256287,359.285614 723.364445,357.875176 723.902066,356.442701 C724.406771,355.946844 725.427154,354.977168 725.942832,354.481311 C727.138765,350.933179 726.974187,347.12059 726.140325,343.506344 C725.449098,337.567079 726.282959,331.495586 725.097998,325.622436 C724.582321,318.691458 725.306464,311.672327 724.077615,304.796444 C723.682628,299.628512 724.110531,294.383448 723.155979,289.281631 C721.971018,282.042119 720.895776,274.714455 721.597975,267.375772 C721.80644,265.524573 721.817412,263.651335 721.444369,261.822174 C720.182605,261.41447 718.931813,260.973708 717.702964,260.499889 C709.825169,256.158386 701.881541,251.860959 695.057044,245.910675 C687.058558,239.839182 678.862578,234.021127 670.600767,228.313263 C667.49573,226.627349 664.028622,225.900092 660.638317,225.084683 C658.422001,225.723788 656.216657,226.406968 654.11006,227.321549 C651.070855,230.329748 647.32945,232.643747 644.981472,236.324108 C643.160143,239.607783 641.448533,242.957572 639.901501,246.395513 C638.431271,249.679188 637.081733,253.017958 635.721222,256.356729 C634.097386,259.981994 632.890482,263.761526 631.310534,267.408829 C629.631839,270.549257 627.580101,273.50236 624.902967,275.871455 L624.97977,276.257121 C624.628671,276.642788 623.926472,277.414121 623.575372,277.799787 L622.818314,277.700616 L622.829286,278.505006 C619.746193,280.774929 616.575325,282.901604 613.470289,285.116432 C612.340187,285.700441 611.221057,286.29547 610.090955,286.879479 C606.130114,289.590164 601.774285,291.661744 597.901218,294.482619 C595.147281,296.510123 592.228766,298.328265 589.672323,300.609207 C589.376083,300.961817 588.783602,301.689074 588.487362,302.052702 L588.070431,302.030664 C585.930918,305.016825 582.968516,307.286748 580.763172,310.239851 C579.98417,311.330737 579.21614,312.44366 578.590744,313.644736 C577.734938,315.154345 576.747471,316.575801 575.749032,317.997258 C573.565631,323.639008 572.676911,329.677444 571.075019,335.506518 C570.164355,339.153822 569.187859,342.812144 568.946478,346.580657 C571.404175,347.792752 573.828956,349.126056 575.91361,350.933179 C575.573482,352.398712 575.211411,353.853226 574.838367,355.318758 C574.706705,356.299453 574.586014,357.291167 574.465324,358.282881 C569.165915,358.624471 563.866507,358.315938 558.589042,357.985367 C558.205027,357.357281 557.436996,356.10111 557.052981,355.473025 C556.109401,348.718351 558.819451,342.261192 560.509117,335.870147 C563.021673,328.652673 563.241111,320.906285 565.369652,313.589641 C565.567145,312.124108 565.764639,310.669594 565.962132,309.204061 C567.564024,304.994787 567.07029,300.025198 569.538959,296.212609 C573.817984,293.116258 577.888544,289.645259 582.727135,287.419412 C584.636239,286.240375 586.23813,284.653632 587.488923,282.780395 C590.615903,278.505006 593.677052,274.19656 596.244467,269.557543 C597.166104,266.979087 597.725669,264.301459 598.394952,261.656889 C598.405924,261.194089 598.438839,260.25747 598.449811,259.79467 C597.626922,260.004032 596.804032,260.213394 595.981143,260.433775 C594.949788,261.678927 593.896489,262.90204 592.788331,264.092097 C589.551632,267.122334 586.347849,270.196647 582.924629,273.03956 C577.350923,278.141378 571.821106,283.309309 565.896301,288.003422 L565.797554,288.422145 C562.308502,291.24302 558.808479,294.041857 555.231652,296.741523 C548.714367,301.61194 541.703348,306.085672 536.623377,312.575889 C534.747189,315.473897 532.662535,318.228658 530.939953,321.225838 C529.173483,325.093522 526.803561,328.641654 524.85057,332.410167 C523.753384,334.900471 522.711057,337.423832 521.657759,339.947193 C520.033923,344.795572 517.159296,349.467646 516.687506,354.536406 C518.278426,358.029443 520.439882,363.902593 516.413209,366.326783 L516.35835,366.734487 C513.176511,366.976906 509.994671,367.219325 506.80186,367.065059 C506.286182,366.712449 505.254827,365.996211 504.750122,365.632583 C501.480507,364.299279 499.626263,360.82828 501.623141,357.588681 C502.040072,355.329777 502.489918,353.081892 503.32378,350.944198 C504.420966,349.31338 505.375518,347.594409 506.27521,345.842381 C506.560479,345.456714 507.109072,344.685381 507.383368,344.299715 C507.86613,343.20883 508.348892,342.117944 508.842626,341.038078 C509.478994,340.013307 510.093418,338.988536 510.707842,337.963765 C512.397508,334.21729 514.547993,330.702215 516.127941,326.911664 C516.380294,326.305617 516.884999,325.104541 517.12638,324.498494 C518.113848,322.327742 519.079372,320.145971 519.924205,317.920125 C520.692235,316.090963 521.449293,314.261802 522.151493,312.410603 C524.137399,308.014005 524.642105,302.868111 527.604507,298.978389 C528.822384,298.427437 530.029288,297.843427 531.247165,297.303494 C533.090438,296.168533 534.747189,294.647905 536.831842,293.975743 C539.892991,290.416592 543.634396,287.397374 546.004318,283.287271 C548.944776,278.284625 552.192447,273.469303 555.067074,268.422581 C558.018505,263.618278 561.321035,258.99028 563.745816,253.888463 C564.480931,252.489044 565.216045,251.078607 565.940188,249.679188 C567.300699,247.728818 569.067169,246.009847 570.032692,243.828076 C571.821106,233.426099 573.664378,222.946989 577.998263,213.25023 C580.126804,209.085032 581.926189,204.73251 584.724014,200.952978 C586.918386,198.054969 588.015572,194.088114 591.285186,192.181819 C582.584501,187.190193 572.205121,189.085468 562.769321,190.143296 C557.744208,191.13501 552.631321,190.319601 547.628153,189.691515 C548.560761,185.239822 553.936973,184.369317 557.447968,182.595251 C560.366483,181.625576 563.350829,180.898319 566.379063,180.358386 C579.04059,178.738586 591.95447,179.862529 604.670856,179.355653 C609.608194,176.755158 614.786912,174.716635 620.031461,172.810341 C621.457803,172.226331 622.884145,171.642322 624.310487,171.047294 C625.473504,170.882008 626.625549,170.716723 627.799538,170.551437 C629.566008,169.989466 631.376365,169.537685 633.153806,169.008771 C649.765203,166.287067 666.464375,161.438688 683.437844,163.807782 C692.303107,164.215487 701.080596,166.000572 709.989746,165.427582 C713.522686,165.504715 716.61675,163.609439 719.743731,162.232059 C721.960046,161.548878 724.154418,160.821621 726.348791,160.072327 C727.52278,159.785831 728.707741,159.499336 729.870758,159.146727 C731.988327,158.959403 734.215615,159.300993 736.278324,158.606794 C740.283054,155.785919 743.947655,152.491225 747.908497,149.604235 L747.864609,149.185512 C748.226681,148.887997 748.950823,148.292969 749.301923,147.995455 C752.363072,144.48038 751.75962,138.871687 755.808236,136.105907 C752.363072,133.483375 748.533893,130.728614 746.932001,126.519339 C746.04328,122.023569 746.328549,117.274362 748.018215,112.998973 C749.027627,109.979755 750.201616,107.015632 751.485323,104.106605 C753.273737,100.216882 755.906983,96.8560739 758.101355,93.2197896 C758.386624,92.7900469 758.935217,91.9525996 759.220485,91.5228569 L760.054346,91.566933 L760.065318,90.6082763 C762.303578,89.8259242 765.222093,88.3163152 767.131197,90.6082763 C771.311475,86.7846682 777.192393,85.5615543 782.338195,83.4899742 L782.338195,83.4899742 Z" id="Shape" sketch:type="MSShapeGroup"></path>
                <path d="M32.2820144,129 L32.2820144,30.9846043 L52.383741,30.9846043 L52.383741,19.9208633 L0.0257553957,19.9208633 L0.0257553957,30.9846043 L20.127482,30.9846043 L20.127482,129 L32.2820144,129 Z M72.9529496,68.2273381 L72.9529496,30.9846043 L105.676691,30.9846043 L105.676691,19.9208633 L60.7984173,19.9208633 L60.7984173,129 L105.676691,129 L105.676691,117.936259 L72.9529496,117.936259 L72.9529496,79.1352518 L99.5994245,79.1352518 L99.5994245,68.2273381 L72.9529496,68.2273381 Z M156.788058,107.028345 L160.995396,129 L173.149928,129 L152.269065,19.9208633 L134.660576,19.9208633 L113.779712,129 L124.999281,129 L129.206619,107.028345 L156.788058,107.028345 Z M142.763597,33.6336691 L155.073957,96.5879137 L130.764892,96.5879137 L142.763597,33.6336691 Z M240.155683,41.2692086 L240.155683,129 L251.686906,129 L251.686906,19.9208633 L234.701727,19.9208633 L217.404892,107.028345 L199.484748,19.9208633 L182.499568,19.9208633 L182.499568,129 L193.095827,129 L193.095827,42.0483453 L211.171799,128.844173 L222.858849,128.844173 L240.155683,41.2692086 Z M300.460863,70.7205755 L300.460863,30.9846043 L331.626331,30.9846043 L331.626331,19.9208633 L288.306331,19.9208633 L288.306331,129 L300.460863,129 L300.460863,81.7843165 L325.549065,81.7843165 L325.549065,70.7205755 L300.460863,70.7205755 Z M350.793094,0.130791367 L350.793094,14.1552518 L361.389353,14.1552518 L361.389353,0.130791367 L350.793094,0.130791367 Z M370.115683,0.130791367 L370.115683,14.1552518 L380.711942,14.1552518 L380.711942,0.130791367 L370.115683,0.130791367 Z M379.153669,107.028345 L383.361007,129 L395.51554,129 L374.634676,19.9208633 L357.026187,19.9208633 L336.145324,129 L347.364892,129 L351.57223,107.028345 L379.153669,107.028345 Z M365.129209,33.6336691 L377.439568,96.5879137 L353.130504,96.5879137 L365.129209,33.6336691 Z M443.977842,79.9143885 L443.977842,129 L456.132374,129 L456.132374,19.9208633 L443.977842,19.9208633 L443.977842,69.0064748 L417.17554,69.0064748 L417.17554,19.9208633 L405.021007,19.9208633 L405.021007,129 L417.17554,129 L417.17554,79.9143885 L443.977842,79.9143885 Z M468.598561,19.9208633 L468.598561,129 L480.753094,129 L480.753094,82.4076259 L489.323597,82.4076259 C499.452374,82.4076259 505.217986,86.3033094 505.217986,98.6136691 L505.217986,115.754676 C505.217986,123.078561 505.841295,125.883453 507.243741,129 L519.554101,129 C517.528345,125.260144 517.372518,120.741151 517.372518,115.910504 L517.372518,98.9253237 C517.372518,87.2382734 513.632662,79.1352518 503.659712,76.1745324 C513.009353,73.2138129 517.216691,65.7341007 517.216691,53.7353957 L517.216691,44.8532374 C517.216691,28.6471942 510.048633,19.9208633 492.907626,19.9208633 L468.598561,19.9208633 Z M480.753094,71.3438849 L480.753094,30.9846043 L492.595971,30.9846043 C501.633957,30.9846043 505.217986,36.1269065 505.217986,45.9440288 L505.217986,56.3844604 C505.217986,68.2273381 499.452374,71.3438849 489.791079,71.3438849 L480.753094,71.3438849 Z M557.731799,129 L557.731799,30.9846043 L577.833525,30.9846043 L577.833525,19.9208633 L525.631367,19.9208633 L525.631367,30.9846043 L545.733094,30.9846043 L545.733094,129 L557.731799,129 Z M598.246906,68.2273381 L598.246906,30.9846043 L630.970647,30.9846043 L630.970647,19.9208633 L586.092374,19.9208633 L586.092374,129 L630.970647,129 L630.970647,117.936259 L598.246906,117.936259 L598.246906,79.1352518 L624.893381,79.1352518 L624.893381,68.2273381 L598.246906,68.2273381 Z M652.942302,40.8017266 L680.835396,129 L693.45741,129 L693.45741,19.9208633 L682.705324,19.9208633 L682.705324,98.7694964 L657.461295,19.9208633 L642.034388,19.9208633 L642.034388,129 L652.942302,129 L652.942302,40.8017266 Z" id="Team-Fährten" sketch:type="MSShapeGroup"></path>
                <path d="M39.1418479,194.644139 L49.930442,260.408654 L56.8167786,260.408654 L69.6712737,180.06806 L64.9656103,180.06806 L53.3736103,253.063228 L42.1259271,180.412377 L36.5020856,180.412377 L24.7953133,253.292773 L12.7442242,180.06806 L7.57947169,180.06806 L20.548739,260.408654 L27.8941648,260.408654 L39.1418479,194.644139 Z M78.8201054,180.06806 L78.8201054,260.408654 L84.0996301,260.408654 L84.0996301,180.06806 L78.8201054,180.06806 Z M94.2814123,180.06806 L94.2814123,260.408654 L99.560937,260.408654 L99.560937,224.484931 L107.939313,224.484931 C117.121095,224.484931 122.974482,227.46901 122.974482,238.142832 L122.974482,250.767783 C122.974482,255.129129 123.318798,257.998436 124.696066,260.408654 L130.205135,260.408654 C128.483551,257.768891 128.254006,254.096179 128.254006,250.767783 L128.254006,238.257604 C128.254006,229.534911 124.92561,223.681525 116.662006,221.845169 C124.581293,220.008812 128.254006,214.614515 128.254006,205.203188 L128.254006,198.20208 C128.254006,186.839624 123.318798,180.06806 111.038165,180.06806 L94.2814123,180.06806 Z M99.560937,219.664495 L99.560937,184.888495 L110.923392,184.888495 C119.646086,184.888495 122.974482,190.053248 122.974482,198.661169 L122.974482,206.236139 C122.974482,217.024733 117.465412,219.664495 108.054086,219.664495 L99.560937,219.664495 Z M139.583511,250.308693 L139.583511,260.408654 L144.748264,260.408654 L144.748264,250.308693 L139.583511,250.308693 Z M178.999274,217.254278 L178.999274,184.888495 L205.396897,184.888495 L205.396897,180.06806 L173.719749,180.06806 L173.719749,260.408654 L205.396897,260.408654 L205.396897,255.588218 L178.999274,255.588218 L178.999274,222.074713 L200.920779,222.074713 L200.920779,217.254278 L178.999274,217.254278 Z M215.004818,180.06806 L215.004818,260.408654 L220.284343,260.408654 L220.284343,180.06806 L215.004818,180.06806 Z M235.286561,188.790753 L260.42169,260.408654 L266.275076,260.408654 L266.275076,180.06806 L261.45464,180.06806 L261.45464,247.898476 L237.352462,180.06806 L230.466125,180.06806 L230.466125,260.408654 L235.286561,260.408654 L235.286561,188.790753 Z M314.298759,260.408654 L314.298759,184.888495 L330.596422,184.888495 L330.596422,180.06806 L292.606798,180.06806 L292.606798,184.888495 L309.019234,184.888495 L309.019234,260.408654 L314.298759,260.408654 Z M343.762284,217.254278 L343.762284,184.888495 L370.159907,184.888495 L370.159907,180.06806 L338.482759,180.06806 L338.482759,260.408654 L370.159907,260.408654 L370.159907,255.588218 L343.762284,255.588218 L343.762284,222.074713 L365.683789,222.074713 L365.683789,217.254278 L343.762284,217.254278 Z M412.477927,242.618951 L416.494957,260.408654 L421.774482,260.408654 L403.870006,179.953288 L396.180264,179.953288 L378.620105,260.408654 L383.440541,260.408654 L387.457571,242.618951 L412.477927,242.618951 Z M399.852977,186.036218 L411.674521,238.02806 L388.260977,238.02806 L399.852977,186.036218 Z M474.536779,189.020297 L474.536779,260.408654 L479.586759,260.408654 L479.586759,180.06806 L472.011789,180.06806 L455.255036,251.112099 L438.383511,180.06806 L430.808541,180.06806 L430.808541,260.408654 L435.514204,260.408654 L435.514204,189.249842 L452.500501,260.293882 L457.780026,260.293882 L474.536779,189.020297 Z M489.768541,250.308693 L489.768541,260.408654 L494.933293,260.408654 L494.933293,250.308693 L489.768541,250.308693 Z" id="Wir.-Ein-Team." sketch:type="MSShapeGroup"></path>
            </g>
        </g>
    </g>
</svg>